<svg width="25" height="24" viewBox="0 0 25 24" fill="none" xmlns="http://www.w3.org/2000/svg">
<path d="M12.3335 2C11.0203 2 9.71992 2.25866 8.50666 2.7612C7.29341 3.26375 6.19101 4.00035 5.26243 4.92893C3.38706 6.8043 2.3335 9.34784 2.3335 12C2.3335 16.42 5.2035 20.17 9.1735 21.5C9.6735 21.58 9.8335 21.27 9.8335 21V19.31C7.0635 19.91 6.4735 17.97 6.4735 17.97C6.0135 16.81 5.3635 16.5 5.3635 16.5C4.4535 15.88 5.4335 15.9 5.4335 15.9C6.4335 15.97 6.9635 16.93 6.9635 16.93C7.8335 18.45 9.3035 18 9.8735 17.76C9.9635 17.11 10.2235 16.67 10.5035 16.42C8.2835 16.17 5.9535 15.31 5.9535 11.5C5.9535 10.39 6.3335 9.5 6.9835 8.79C6.8835 8.54 6.5335 7.5 7.0835 6.15C7.0835 6.15 7.9235 5.88 9.8335 7.17C10.6235 6.95 11.4835 6.84 12.3335 6.84C13.1835 6.84 14.0435 6.95 14.8335 7.17C16.7435 5.88 17.5835 6.15 17.5835 6.15C18.1335 7.5 17.7835 8.54 17.6835 8.79C18.3335 9.5 18.7135 10.39 18.7135 11.5C18.7135 15.32 16.3735 16.16 14.1435 16.41C14.5035 16.72 14.8335 17.33 14.8335 18.26V21C14.8335 21.27 14.9935 21.59 15.5035 21.5C19.4735 20.16 22.3335 16.42 22.3335 12C22.3335 10.6868 22.0748 9.38642 21.5723 8.17317C21.0697 6.95991 20.3331 5.85752 19.4046 4.92893C18.476 4.00035 17.3736 3.26375 16.1603 2.7612C14.9471 2.25866 13.6467 2 12.3335 2Z" fill="#2E3238"/>
</svg>
