<svg width="88" height="20" viewBox="0 0 88 20" fill="none" xmlns="http://www.w3.org/2000/svg">
<path d="M9.00091 7.14624C8.93974 6.55824 8.67721 6.10145 8.21327 5.77586C7.74933 5.45026 7.1197 5.28747 6.32435 5.28747C5.78394 5.28747 5.32765 5.36036 4.95548 5.50615C4.58331 5.64708 4.29781 5.84389 4.09898 6.09658C3.90525 6.34928 3.80838 6.63599 3.80838 6.95672C3.79819 7.224 3.85681 7.45725 3.98427 7.6565C4.11682 7.85574 4.29781 8.02825 4.52723 8.17402C4.75665 8.31495 5.02176 8.43887 5.32256 8.54581C5.62335 8.64786 5.94454 8.73529 6.28612 8.80823L7.6932 9.12896C8.3764 9.27469 9.00347 9.46912 9.57448 9.7121C10.1455 9.95503 10.64 10.2539 11.058 10.6087C11.4762 10.9634 11.7998 11.3813 12.0293 11.8624C12.2638 12.3435 12.3836 12.8951 12.3887 13.5171C12.3836 14.4307 12.1389 15.2228 11.6546 15.8934C11.1753 16.5592 10.482 17.0767 9.57448 17.446C8.6721 17.8105 7.58364 17.9927 6.30906 17.9927C5.0447 17.9927 3.94349 17.8081 3.00541 17.4387C2.07243 17.0694 1.34338 16.5227 0.818269 15.7986C0.298247 15.0697 0.0254913 14.1682 0 13.0943H3.20424C3.23993 13.5948 3.39033 14.0128 3.65544 14.3481C3.92564 14.6785 4.28506 14.9288 4.73371 15.0989C5.18745 15.2641 5.69982 15.3467 6.27083 15.3467C6.8316 15.3467 7.31849 15.2689 7.73149 15.1134C8.14954 14.9579 8.47324 14.7417 8.70265 14.4647C8.93213 14.1877 9.04681 13.8694 9.04681 13.5098C9.04681 13.1745 8.9423 12.8926 8.73327 12.6642C8.52936 12.4359 8.22855 12.2414 7.83089 12.0811C7.43835 11.9207 6.95651 11.775 6.38553 11.6437L4.68018 11.2356C3.35973 10.9294 2.31715 10.4507 1.55242 9.79954C0.787676 9.14839 0.407859 8.2712 0.412957 7.16811C0.407859 6.26424 0.660223 5.47456 1.17004 4.79909C1.68497 4.12361 2.39107 3.59635 3.28836 3.21731C4.18565 2.83827 5.2053 2.64875 6.3473 2.64875C7.50968 2.64875 8.52425 2.83827 9.39096 3.21731C10.2627 3.59635 10.9408 4.12361 11.4251 4.79909C11.9095 5.47456 12.1593 6.25695 12.1746 7.14624H9.00091ZM16.9512 11.3084V17.7813H13.6934V2.85285H16.8594V8.56037H16.9971C17.2622 7.89947 17.6905 7.38193 18.2818 7.00774C18.8732 6.62871 19.615 6.43918 20.5072 6.43918C21.3229 6.43918 22.0341 6.60926 22.6408 6.94943C23.2526 7.28474 23.7268 7.76826 24.0633 8.4C24.4048 9.0269 24.573 9.77766 24.568 10.6524V17.7813H21.3101V11.2064C21.3153 10.5163 21.1317 9.97934 20.7596 9.59542C20.3925 9.21158 19.8776 9.01959 19.2148 9.01959C18.7712 9.01959 18.3787 9.10952 18.0371 9.28932C17.7006 9.46912 17.4355 9.73154 17.2418 10.0765C17.0532 10.4167 16.9563 10.8273 16.9512 11.3084ZM31.5776 18C30.3897 18 29.3624 17.7595 28.4957 17.2784C27.6341 16.7924 26.9688 16.1169 26.4997 15.2519C26.0307 14.3821 25.7962 13.3737 25.7962 12.2269C25.7962 11.0703 26.0307 10.0595 26.4997 9.19451C26.9688 8.3247 27.6341 7.6492 28.4957 7.16811C29.3624 6.68216 30.3897 6.43918 31.5776 6.43918C32.7654 6.43918 33.7902 6.68216 34.6518 7.16811C35.5185 7.6492 36.1864 8.3247 36.6554 9.19451C37.1245 10.0595 37.359 11.0703 37.359 12.2269C37.359 13.3737 37.1245 14.3821 36.6554 15.2519C36.1864 16.1169 35.5185 16.7924 34.6518 17.2784C33.7902 17.7595 32.7654 18 31.5776 18ZM31.5929 15.5945C32.1333 15.5945 32.5845 15.4487 32.9465 15.1572C33.3085 14.8608 33.5812 14.4574 33.7647 13.9471C33.9534 13.4369 34.0477 12.8562 34.0477 12.205C34.0477 11.5539 33.9534 10.9731 33.7647 10.4629C33.5812 9.95265 33.3085 9.5493 32.9465 9.25282C32.5845 8.9564 32.1333 8.80823 31.5929 8.80823C31.0474 8.80823 30.5885 8.9564 30.2164 9.25282C29.8493 9.5493 29.5714 9.95265 29.3828 10.4629C29.1993 10.9731 29.1075 11.5539 29.1075 12.205C29.1075 12.8562 29.1993 13.4369 29.3828 13.9471C29.5714 14.4574 29.8493 14.8608 30.2164 15.1572C30.5885 15.4487 31.0474 15.5945 31.5929 15.5945ZM46.1485 13.0141V6.58497H49.4063V17.7813H46.2786V15.7476H46.1562C45.8911 16.4037 45.4501 16.9309 44.8332 17.3294C44.2214 17.7279 43.4745 17.9271 42.5925 17.9271C41.8074 17.9271 41.1166 17.757 40.5201 17.4169C39.9236 17.0767 39.4571 16.5932 39.1206 15.9663C38.7892 15.3394 38.621 14.5886 38.6159 13.7139V6.58497H41.8736V13.1599C41.8788 13.8208 42.0648 14.3432 42.4319 14.7271C42.799 15.111 43.291 15.303 43.9079 15.303C44.3004 15.303 44.6675 15.2179 45.0091 15.0478C45.3507 14.8729 45.626 14.6153 45.835 14.2752C46.0491 13.935 46.1537 13.5147 46.1485 13.0141ZM62.1017 6.58497L57.9951 17.7813H54.3244L50.2178 6.58497H53.659L56.0985 14.5959H56.221L58.6528 6.58497H62.1017ZM62.9075 17.7813V6.58497H66.1653V17.7813H62.9075ZM64.544 5.14168C64.0597 5.14168 63.6442 4.98861 63.2975 4.68246C62.9559 4.37145 62.7851 3.9997 62.7851 3.5672C62.7851 3.13956 62.9559 2.77266 63.2975 2.46652C63.6442 2.15551 64.0597 2 64.544 2C65.0284 2 65.4413 2.15551 65.7829 2.46652C66.1295 2.77266 66.3029 3.13956 66.3029 3.5672C66.3029 3.9997 66.1295 4.37145 65.7829 4.68246C65.4413 4.98861 65.0284 5.14168 64.544 5.14168ZM70.8656 14.5595L70.873 10.8347H71.3474L75.1093 6.58497H78.849L73.7943 12.2123H73.0218L70.8656 14.5595ZM67.9133 17.7813V2.85285H71.1711V17.7813H67.9133ZM75.2547 17.7813L71.7983 12.9048L73.97 10.7107L79.0711 17.7813H75.2547ZM81.9386 9.35488L80.7131 8.19153L85.1136 3.99727H81.8464L81.8558 2.40966H88V8.27024H86.325L86.3344 5.16501L81.9386 9.35488Z" fill="black"/>
</svg>
