<svg width="132" height="26" viewBox="0 0 132 26" fill="none" xmlns="http://www.w3.org/2000/svg">
<path d="M13.6479 8.42019C13.557 7.50353 13.1669 6.7914 12.4775 6.28382C11.7881 5.77625 10.8525 5.52246 9.67067 5.52246C8.86764 5.52246 8.18961 5.63609 7.63658 5.86337C7.08355 6.08306 6.65931 6.38988 6.36386 6.78382C6.07598 7.17776 5.93204 7.62473 5.93204 8.12473C5.91689 8.5414 6.00401 8.90504 6.1934 9.21564C6.39037 9.52625 6.65931 9.79519 7.00022 10.0224C7.34113 10.2421 7.73507 10.4353 8.18204 10.602C8.62901 10.7611 9.10628 10.8974 9.61386 11.0111L11.7047 11.5111C12.7199 11.7383 13.6517 12.0414 14.5002 12.4202C15.3487 12.7989 16.0835 13.2649 16.7047 13.8179C17.326 14.3709 17.807 15.0224 18.1479 15.7724C18.4964 16.5224 18.6744 17.3823 18.682 18.352C18.6744 19.7762 18.3108 21.0111 17.5911 22.0565C16.879 23.0944 15.8487 23.9012 14.5002 24.477C13.1593 25.0452 11.5419 25.3292 9.64795 25.3292C7.76916 25.3292 6.1328 25.0414 4.73886 24.4656C3.35249 23.8899 2.26916 23.0376 1.48886 21.9088C0.716131 20.7724 0.310828 19.3671 0.272949 17.6929H5.03431C5.08734 18.4732 5.31083 19.1247 5.70477 19.6474C6.10628 20.1626 6.64037 20.5527 7.30704 20.8179C7.98128 21.0755 8.74264 21.2042 9.59113 21.2042C10.4244 21.2042 11.1479 21.083 11.7616 20.8406C12.3828 20.5982 12.8638 20.2611 13.2047 19.8292C13.5457 19.3974 13.7161 18.9012 13.7161 18.3406C13.7161 17.8179 13.5608 17.3785 13.2502 17.0224C12.9472 16.6664 12.5002 16.3633 11.9093 16.1133C11.326 15.8633 10.61 15.6361 9.76158 15.4315L7.22749 14.7952C5.26537 14.3179 3.71613 13.5717 2.57977 12.5565C1.4434 11.5414 0.87901 10.1739 0.886586 8.45428C0.87901 7.04519 1.25401 5.81413 2.01158 4.7611C2.77674 3.70807 3.82598 2.88609 5.15931 2.29518C6.49264 1.70427 8.0078 1.40882 9.70477 1.40882C11.432 1.40882 12.9396 1.70427 14.2275 2.29518C15.5229 2.88609 16.5305 3.70807 17.2502 4.7611C17.9699 5.81413 18.3411 7.03382 18.3638 8.42019H13.6479ZM25.4617 14.9088V24.9997H20.6208V1.72701H25.3253V10.6247H25.5299C25.9238 9.59443 26.5602 8.78761 27.4389 8.20428C28.3177 7.61338 29.42 7.31791 30.7458 7.31791C31.9579 7.31791 33.0147 7.58306 33.9162 8.11337C34.8253 8.6361 35.5299 9.38988 36.0299 10.3747C36.5374 11.352 36.7874 12.5224 36.7799 13.8861V24.9997H31.9389V14.7497C31.9465 13.6739 31.6738 12.8368 31.1208 12.2383C30.5753 11.6399 29.8102 11.3406 28.8253 11.3406C28.1662 11.3406 27.5829 11.4808 27.0753 11.7611C26.5753 12.0414 26.1814 12.4505 25.8935 12.9883C25.6132 13.5186 25.4693 14.1588 25.4617 14.9088ZM47.1959 25.3406C45.4307 25.3406 43.9042 24.9656 42.6163 24.2156C41.336 23.458 40.3474 22.405 39.6504 21.0565C38.9535 19.7005 38.605 18.1285 38.605 16.3406C38.605 14.5376 38.9535 12.9618 39.6504 11.6133C40.3474 10.2573 41.336 9.20428 42.6163 8.45428C43.9042 7.6967 45.4307 7.31791 47.1959 7.31791C48.961 7.31791 50.4838 7.6967 51.7641 8.45428C53.0519 9.20428 54.0444 10.2573 54.7413 11.6133C55.4383 12.9618 55.7868 14.5376 55.7868 16.3406C55.7868 18.1285 55.4383 19.7005 54.7413 21.0565C54.0444 22.405 53.0519 23.458 51.7641 24.2156C50.4838 24.9656 48.961 25.3406 47.1959 25.3406ZM47.2186 21.5906C48.0216 21.5906 48.6921 21.3633 49.23 20.9088C49.7679 20.4467 50.1732 19.8179 50.4459 19.0224C50.7262 18.227 50.8663 17.3217 50.8663 16.3065C50.8663 15.2914 50.7262 14.3861 50.4459 13.5906C50.1732 12.7952 49.7679 12.1664 49.23 11.7042C48.6921 11.2421 48.0216 11.0111 47.2186 11.0111C46.408 11.0111 45.7262 11.2421 45.1732 11.7042C44.6277 12.1664 44.2148 12.7952 43.9345 13.5906C43.6618 14.3861 43.5254 15.2914 43.5254 16.3065C43.5254 17.3217 43.6618 18.227 43.9345 19.0224C44.2148 19.8179 44.6277 20.4467 45.1732 20.9088C45.7262 21.3633 46.408 21.5906 47.2186 21.5906ZM68.8477 17.5679V7.54519H73.6886V24.9997H69.0409V21.8292H68.8591C68.4651 22.852 67.8098 23.6739 66.8932 24.2952C65.9841 24.9164 64.8742 25.227 63.5636 25.227C62.3969 25.227 61.3704 24.9618 60.4841 24.4315C59.5977 23.9012 58.9045 23.1474 58.4045 22.1702C57.9121 21.1929 57.6621 20.0224 57.6545 18.6588V7.54519H62.4954V17.7952C62.503 18.8255 62.7795 19.6399 63.325 20.2383C63.8704 20.8368 64.6015 21.1361 65.5182 21.1361C66.1015 21.1361 66.6469 21.0035 67.1545 20.7383C67.6621 20.4656 68.0712 20.0641 68.3818 19.5338C68.7 19.0035 68.8553 18.3482 68.8477 17.5679ZM92.5535 7.54519L86.4512 24.9997H80.9967L74.8944 7.54519H80.008L83.633 20.0338H83.8149L87.4285 7.54519H92.5535ZM93.7508 24.9997V7.54519H98.5917V24.9997H93.7508ZM96.1826 5.29519C95.4629 5.29519 94.8455 5.05655 94.3303 4.57927C93.8227 4.09443 93.5689 3.51488 93.5689 2.84064C93.5689 2.17397 93.8227 1.60201 94.3303 1.12473C94.8455 0.639886 95.4629 0.397461 96.1826 0.397461C96.9023 0.397461 97.5159 0.639886 98.0235 1.12473C98.5386 1.60201 98.7962 2.17397 98.7962 2.84064C98.7962 3.51488 98.5386 4.09443 98.0235 4.57927C97.5159 5.05655 96.9023 5.29519 96.1826 5.29519ZM105.576 19.977L105.587 14.1702H106.292L111.882 7.54519H117.439L109.928 16.3179H108.78L105.576 19.977ZM101.189 24.9997V1.72701H106.03V24.9997H101.189ZM112.098 24.9997L106.962 17.3974L110.189 13.977L117.769 24.9997H112.098ZM122.03 11.8633L120.209 10.0497L126.748 3.51109H121.893L121.907 1.03609H131.037V10.1724H128.548L128.562 5.33155L122.03 11.8633Z" fill="black"/>
</svg>
